Release :Tron Legacy 
Release Date: 17 December 2010 (India)
Release Length: 2h 5mn
Tagline: The only way to win is to survive.

Storyline:Sam Flynn, the tech-savvy 27-year-old son of Kevin Flynn, looks into his father's
disappearance and finds himself pulled into the same world of fierce programs and gladiatorial
games where his father has been living for 20 years. Along with Kevin's loyal confidant,father
and son embark on a life-and-death journey across a visually-stunning cyber universe that has
become far more advanced and exceedingly dangerous.


cast

Jeff Bridges ... Kevin Flynn / Clu
Garrett Hedlund ... Sam Flynn
Olivia Wilde ... Quorra
Bruce Boxleitner ... Alan Bradley / Tron
James Frain ... Jarvis
Beau Garrett ... Gem
Michael Sheen ... Castor / Zuse
Anis Cheurfa ... Rinzler
Serinda Swan ... Siren #2
Yaya DaCosta ... Siren #3
Elizabeth Mathis ... Siren #4
Kis Yurij ... Half Faced Man (as Yurij Kis)
Conrad Coates ... Bartik
Daft Punk ... Masked DJ's
Ron Selmour ... Chattering Homeless Man


Info

Language: English, Hindi 
Original Source: Tron.Legacy.3D.2010.Anaglyph-Red.Cyan.720p.BRRiP.AC3-5.1.x264-T00NG0D
Total Size: 2.51 GB 
Encoder: Harshad (HD Desi Rockers)

General
Complete name                    : Tron Legacy 3D Anaglyph.BRRip.720p.Dual Audio [Eng-Hindi]~Harshad.mkv
Format                           : Matroska
File size                        : 2.51 GiB
Duration                         : 2h 5mn
Overall bit rate                 : 2 875 Kbps
Encoded date                     : UTC 2011-08-21 18:50:29
Writing application              : mkvmerge v4.3.0 ('Escape from the Island') built on Sep  5 2010 10:30:51
Writing library                  : libebml v1.0.0 + libmatroska v1.0.0


Video
ID                               : 1
Format                           : AVC
Format/Info                      : Advanced Video Codec
Format profile                   : Main@L3.1
Format settings, CABAC           : Yes
Format settings, ReFrames        : 4 frames
Muxing mode                      : Container profile=Unknown@3.1
Codec ID                         : V_MPEG4/ISO/AVC
Duration                         : 2h 5mn
Bit rate                         : 2 049 Kbps
Width                            : 1 280 pixels
Height                           : 720 pixels
Display aspect ratio             : 16:9
Frame rate                       : 23.976 fps
Color space                      : YUV
Chroma subsampling               : 4:2:0
Bit depth                        : 8 bits
Scan type                        : Progressive
Bits/(Pixel*Frame)               : 0.093
Stream size                      : 1.74 GiB (69%)
Writing library                  : x264 core 80 r1373M 4322f63


Audio #1
ID                               : 2
Format                           : AC-3
Format/Info                      : Audio Coding 3
Mode extension                   : CM (complete main)
Codec ID                         : A_AC3
Duration                         : 2h 5mn
Bit rate mode                    : Constant
Bit rate                         : 448 Kbps
Channel(s)                       : 6 channels
Channel positions                : Front: L C R, Side: L R, LFE
Sampling rate                    : 48.0 KHz
Stream size                      : 401 MiB (16%)
Title                            : Eng_by_Harshad

Audio #2
ID                               : 3
Format                           : AC-3
Format/Info                      : Audio Coding 3
Mode extension                   : CM (complete main)
Codec ID                         : A_AC3
Duration                         : 2h 5mn
Bit rate mode                    : Constant
Bit rate                         : 384 Kbps
Channel(s)                       : 6 channels
Channel positions                : Front: L C R, Side: L R, LFE
Sampling rate                    : 48.0 KHz
Stream size                      : 344 MiB (13%)
Title                            : Hindi_by_Harshad
Language                         : Hindi


Screenshots
 
http://pix2links.com/images/53509263374593095871.jpg 
http://pix2links.com/images/33987709208538403746.jpg 
http://pix2links.com/images/46805600800131278044.jpg 
http://pix2links.com/images/30954245648166417209.jpg 
http://pix2links.com/images/75149309798504945429.jpg 
http://pix2links.com/images/66612406552540047812.jpg

